<svg width="103" height="13" viewBox="0 0 103 13" fill="none" xmlns="http://www.w3.org/2000/svg">
<path d="M0.248 12V0.639999H4.008C4.91467 0.639999 5.736 0.773333 6.472 1.04C7.21867 1.30667 7.85333 1.69067 8.376 2.192C8.90933 2.68267 9.31467 3.27467 9.592 3.968C9.88 4.66133 10.024 5.43467 10.024 6.288C10.024 7.152 9.88 7.936 9.592 8.64C9.31467 9.33333 8.90933 9.93067 8.376 10.432C7.85333 10.9333 7.224 11.3227 6.488 11.6C5.752 11.8667 4.93067 12 4.024 12H0.248ZM1.592 10.768H3.976C4.69067 10.768 5.336 10.6667 5.912 10.464C6.488 10.2507 6.97867 9.952 7.384 9.568C7.78933 9.17333 8.09867 8.704 8.312 8.16C8.536 7.616 8.648 7.00267 8.648 6.32C8.648 5.63733 8.536 5.024 8.312 4.48C8.09867 3.936 7.784 3.472 7.368 3.088C6.96267 2.69333 6.472 2.39467 5.896 2.192C5.33067 1.97867 4.69067 1.872 3.976 1.872H1.592V10.768ZM14.5394 12.24C13.9634 12.24 13.4514 12.1333 13.0034 11.92C12.5554 11.696 12.2034 11.392 11.9474 11.008C11.702 10.624 11.5794 10.1813 11.5794 9.68C11.5794 9.136 11.718 8.66667 11.9954 8.272C12.2834 7.87733 12.6834 7.57333 13.1954 7.36C13.7074 7.136 14.3047 7.024 14.9874 7.024C15.3714 7.024 15.7607 7.06667 16.1554 7.152C16.55 7.23733 16.902 7.34933 17.2114 7.488V6.88C17.2114 6.432 17.1207 6.04267 16.9394 5.712C16.7687 5.37067 16.5287 5.10933 16.2194 4.928C15.91 4.736 15.5474 4.64 15.1314 4.64C14.63 4.64 14.1927 4.75733 13.8194 4.992C13.4567 5.22667 13.1847 5.55733 13.0034 5.984L11.8834 5.6C12.0327 5.17333 12.262 4.80533 12.5714 4.496C12.8914 4.18667 13.27 3.94667 13.7074 3.776C14.1554 3.60533 14.6354 3.52 15.1474 3.52C15.8087 3.52 16.3847 3.664 16.8754 3.952C17.3767 4.22933 17.7607 4.624 18.0274 5.136C18.3047 5.63733 18.4434 6.22933 18.4434 6.912V12H17.3234L17.2434 10.72C17.0087 11.1787 16.6514 11.5467 16.1714 11.824C15.702 12.1013 15.158 12.24 14.5394 12.24ZM12.8754 9.632C12.8754 9.94133 12.9554 10.2133 13.1154 10.448C13.2754 10.672 13.4994 10.848 13.7874 10.976C14.0754 11.104 14.406 11.168 14.7794 11.168C15.238 11.168 15.6487 11.0667 16.0114 10.864C16.3847 10.6507 16.678 10.368 16.8914 10.016C17.1047 9.65333 17.2114 9.24267 17.2114 8.784V8.48C16.8594 8.34133 16.502 8.23467 16.1394 8.16C15.7874 8.07467 15.4514 8.032 15.1314 8.032C14.4274 8.032 13.8727 8.176 13.4674 8.464C13.0727 8.752 12.8754 9.14133 12.8754 9.632ZM23.458 12.24C22.9567 12.24 22.5247 12.1387 22.162 11.936C21.7993 11.7333 21.5167 11.4347 21.314 11.04C21.122 10.6453 21.026 10.1653 21.026 9.6V4.832H19.506V3.744H21.026V0.976H22.306V3.744H24.898V4.832H22.306V9.536C22.306 10.0267 22.4073 10.4107 22.61 10.688C22.8233 10.9547 23.1433 11.088 23.57 11.088C23.794 11.088 24.018 11.056 24.242 10.992C24.4767 10.9173 24.6847 10.8213 24.866 10.704L25.25 11.696C25.026 11.856 24.7647 11.984 24.466 12.08C24.1673 12.1867 23.8313 12.24 23.458 12.24ZM30.489 12.24C29.881 12.24 29.321 12.1333 28.809 11.92C28.3077 11.7067 27.8703 11.408 27.497 11.024C27.1237 10.6293 26.8357 10.1707 26.633 9.648C26.4303 9.11467 26.329 8.528 26.329 7.888C26.329 7.25867 26.425 6.68267 26.617 6.16C26.8197 5.62667 27.097 5.16267 27.449 4.768C27.8117 4.37333 28.233 4.06933 28.713 3.856C29.193 3.632 29.7157 3.52 30.281 3.52C30.825 3.52 31.3263 3.62133 31.785 3.824C32.2543 4.02667 32.6597 4.30933 33.001 4.672C33.3423 5.03467 33.6037 5.46667 33.785 5.968C33.977 6.46933 34.073 7.01333 34.073 7.6V8.128H27.657C27.6997 8.72533 27.8383 9.248 28.073 9.696C28.3183 10.144 28.6437 10.4907 29.049 10.736C29.4543 10.9813 29.9237 11.104 30.457 11.104C30.9797 11.104 31.433 10.9973 31.817 10.784C32.2117 10.56 32.5477 10.2347 32.825 9.808L33.913 10.304C33.6997 10.7093 33.4223 11.056 33.081 11.344C32.7397 11.632 32.345 11.8507 31.897 12C31.4597 12.16 30.9903 12.24 30.489 12.24ZM30.281 4.608C29.8437 4.608 29.4437 4.71467 29.081 4.928C28.729 5.14133 28.4303 5.44 28.185 5.824C27.9503 6.19733 27.7957 6.63467 27.721 7.136H32.729C32.6863 6.63467 32.553 6.19733 32.329 5.824C32.105 5.44 31.817 5.14133 31.465 4.928C31.113 4.71467 30.7183 4.608 30.281 4.608ZM41.9613 12.24C41.3853 12.24 40.8733 12.1333 40.4253 11.92C39.9773 11.696 39.6253 11.392 39.3693 11.008C39.1239 10.624 39.0013 10.1813 39.0013 9.68C39.0013 9.136 39.1399 8.66667 39.4173 8.272C39.7053 7.87733 40.1053 7.57333 40.6173 7.36C41.1293 7.136 41.7266 7.024 42.4093 7.024C42.7933 7.024 43.1826 7.06667 43.5773 7.152C43.9719 7.23733 44.3239 7.34933 44.6333 7.488V6.88C44.6333 6.432 44.5426 6.04267 44.3613 5.712C44.1906 5.37067 43.9506 5.10933 43.6413 4.928C43.3319 4.736 42.9693 4.64 42.5533 4.64C42.0519 4.64 41.6146 4.75733 41.2413 4.992C40.8786 5.22667 40.6066 5.55733 40.4253 5.984L39.3053 5.6C39.4546 5.17333 39.6839 4.80533 39.9933 4.496C40.3133 4.18667 40.6919 3.94667 41.1293 3.776C41.5773 3.60533 42.0573 3.52 42.5693 3.52C43.2306 3.52 43.8066 3.664 44.2973 3.952C44.7986 4.22933 45.1826 4.624 45.4493 5.136C45.7266 5.63733 45.8653 6.22933 45.8653 6.912V12H44.7453L44.6653 10.72C44.4306 11.1787 44.0733 11.5467 43.5933 11.824C43.1239 12.1013 42.5799 12.24 41.9613 12.24ZM40.2973 9.632C40.2973 9.94133 40.3773 10.2133 40.5373 10.448C40.6973 10.672 40.9213 10.848 41.2093 10.976C41.4973 11.104 41.8279 11.168 42.2013 11.168C42.6599 11.168 43.0706 11.0667 43.4333 10.864C43.8066 10.6507 44.0999 10.368 44.3133 10.016C44.5266 9.65333 44.6333 9.24267 44.6333 8.784V8.48C44.2813 8.34133 43.9239 8.23467 43.5613 8.16C43.2093 8.07467 42.8733 8.032 42.5533 8.032C41.8493 8.032 41.2946 8.176 40.8893 8.464C40.4946 8.752 40.2973 9.14133 40.2973 9.632ZM48.0419 12V3.744H49.1939L49.2579 5.056C49.5032 4.58667 49.8552 4.21333 50.3139 3.936C50.7832 3.648 51.3219 3.504 51.9299 3.504C52.5592 3.504 53.1085 3.65333 53.5779 3.952C54.0472 4.25067 54.4045 4.67733 54.6499 5.232C54.9059 5.776 55.0339 6.42133 55.0339 7.168V12H53.7539V7.248C53.7539 6.42667 53.5725 5.792 53.2099 5.344C52.8579 4.896 52.3512 4.672 51.6899 4.672C51.2312 4.672 50.8205 4.77867 50.4579 4.992C50.1059 5.19467 49.8285 5.48267 49.6259 5.856C49.4232 6.21867 49.3219 6.63467 49.3219 7.104V12H48.0419ZM60.6698 12.24C60.1258 12.24 59.6191 12.1333 59.1498 11.92C58.6804 11.696 58.2698 11.3867 57.9178 10.992C57.5658 10.5973 57.2884 10.1387 57.0858 9.616C56.8938 9.08267 56.7978 8.50667 56.7978 7.888C56.7978 7.26933 56.8938 6.69333 57.0858 6.16C57.2884 5.62667 57.5658 5.16267 57.9178 4.768C58.2804 4.37333 58.7018 4.064 59.1818 3.84C59.6618 3.616 60.1791 3.504 60.7338 3.504C61.3631 3.504 61.9284 3.648 62.4298 3.936C62.9418 4.224 63.3471 4.62933 63.6458 5.152V0.127999H64.9258V12H63.7738L63.7098 10.432C63.4111 10.9973 62.9951 11.44 62.4618 11.76C61.9391 12.08 61.3418 12.24 60.6698 12.24ZM60.8938 11.072C61.2991 11.072 61.6671 10.992 61.9978 10.832C62.3391 10.672 62.6324 10.4533 62.8778 10.176C63.1338 9.888 63.3311 9.552 63.4698 9.168C63.6084 8.77333 63.6778 8.34133 63.6778 7.872C63.6778 7.40267 63.6084 6.976 63.4698 6.592C63.3311 6.19733 63.1338 5.86133 62.8778 5.584C62.6324 5.296 62.3391 5.072 61.9978 4.912C61.6671 4.752 61.2991 4.672 60.8938 4.672C60.4884 4.672 60.1151 4.752 59.7738 4.912C59.4431 5.072 59.1498 5.296 58.8938 5.584C58.6484 5.86133 58.4564 6.19733 58.3178 6.592C58.1791 6.976 58.1098 7.40267 58.1098 7.872C58.1098 8.34133 58.1791 8.77333 58.3178 9.168C58.4564 9.552 58.6484 9.888 58.8938 10.176C59.1498 10.4533 59.4431 10.672 59.7738 10.832C60.1151 10.992 60.4884 11.072 60.8938 11.072ZM73.7549 12.24C73.2535 12.24 72.8215 12.1387 72.4589 11.936C72.0962 11.7333 71.8135 11.4347 71.6109 11.04C71.4189 10.6453 71.3229 10.1653 71.3229 9.6V4.832H69.8029V3.744H71.3229V0.976H72.6029V3.744H75.1949V4.832H72.6029V9.536C72.6029 10.0267 72.7042 10.4107 72.9069 10.688C73.1202 10.9547 73.4402 11.088 73.8669 11.088C74.0909 11.088 74.3149 11.056 74.5389 10.992C74.7735 10.9173 74.9815 10.8213 75.1629 10.704L75.5469 11.696C75.3229 11.856 75.0615 11.984 74.7629 12.08C74.4642 12.1867 74.1282 12.24 73.7549 12.24ZM78.7181 1.328C78.7181 1.488 78.6755 1.63733 78.5901 1.776C78.5155 1.904 78.4088 2.01067 78.2701 2.096C78.1421 2.17067 77.9981 2.208 77.8381 2.208C77.6781 2.208 77.5288 2.17067 77.3901 2.096C77.2621 2.01067 77.1555 1.904 77.0701 1.776C76.9955 1.63733 76.9581 1.488 76.9581 1.328C76.9581 1.168 76.9955 1.024 77.0701 0.896C77.1555 0.757333 77.2621 0.650666 77.3901 0.575999C77.5288 0.490666 77.6781 0.447999 77.8381 0.447999C77.9981 0.447999 78.1421 0.490666 78.2701 0.575999C78.4088 0.650666 78.5155 0.757333 78.5901 0.896C78.6755 1.024 78.7181 1.168 78.7181 1.328ZM77.1981 12V3.744H78.4781V12H77.1981ZM80.7138 12V3.744H81.8658L81.9298 5.008C82.1644 4.54933 82.5058 4.18667 82.9538 3.92C83.4018 3.64267 83.9138 3.504 84.4898 3.504C85.1084 3.504 85.6471 3.664 86.1058 3.984C86.5644 4.304 86.9058 4.752 87.1298 5.328C87.2684 4.96533 87.4764 4.65067 87.7538 4.384C88.0311 4.10667 88.3564 3.89333 88.7298 3.744C89.1138 3.584 89.5244 3.504 89.9618 3.504C90.5804 3.504 91.1138 3.65333 91.5618 3.952C92.0204 4.24 92.3671 4.65067 92.6018 5.184C92.8471 5.71733 92.9698 6.35733 92.9698 7.104V12H91.6898V7.184C91.6898 6.37333 91.5244 5.75467 91.1938 5.328C90.8631 4.89067 90.3831 4.672 89.7538 4.672C89.3164 4.672 88.9271 4.77867 88.5858 4.992C88.2444 5.19467 87.9724 5.47733 87.7698 5.84C87.5778 6.192 87.4818 6.592 87.4818 7.04V12H86.2018V7.184C86.2018 6.37333 86.0311 5.75467 85.6898 5.328C85.3484 4.89067 84.8631 4.672 84.2338 4.672C83.8071 4.672 83.4231 4.77867 83.0818 4.992C82.7404 5.19467 82.4738 5.47733 82.2818 5.84C82.0898 6.192 81.9938 6.592 81.9938 7.04V12H80.7138ZM98.8953 12.24C98.2873 12.24 97.7273 12.1333 97.2153 11.92C96.7139 11.7067 96.2766 11.408 95.9033 11.024C95.5299 10.6293 95.2419 10.1707 95.0393 9.648C94.8366 9.11467 94.7353 8.528 94.7353 7.888C94.7353 7.25867 94.8313 6.68267 95.0233 6.16C95.2259 5.62667 95.5033 5.16267 95.8553 4.768C96.2179 4.37333 96.6393 4.06933 97.1193 3.856C97.5993 3.632 98.1219 3.52 98.6873 3.52C99.2313 3.52 99.7326 3.62133 100.191 3.824C100.661 4.02667 101.066 4.30933 101.407 4.672C101.749 5.03467 102.01 5.46667 102.191 5.968C102.383 6.46933 102.479 7.01333 102.479 7.6V8.128H96.0633C96.1059 8.72533 96.2446 9.248 96.4793 9.696C96.7246 10.144 97.0499 10.4907 97.4553 10.736C97.8606 10.9813 98.3299 11.104 98.8633 11.104C99.3859 11.104 99.8393 10.9973 100.223 10.784C100.618 10.56 100.954 10.2347 101.231 9.808L102.319 10.304C102.106 10.7093 101.829 11.056 101.487 11.344C101.146 11.632 100.751 11.8507 100.303 12C99.8659 12.16 99.3966 12.24 98.8953 12.24ZM98.6873 4.608C98.2499 4.608 97.8499 4.71467 97.4873 4.928C97.1353 5.14133 96.8366 5.44 96.5913 5.824C96.3566 6.19733 96.2019 6.63467 96.1273 7.136H101.135C101.093 6.63467 100.959 6.19733 100.735 5.824C100.511 5.44 100.223 5.14133 99.8713 4.928C99.5193 4.71467 99.1246 4.608 98.6873 4.608Z" fill="#2B2F55"/>
</svg>
