<svg width="41" height="41" viewBox="0 0 41 41" fill="none" xmlns="http://www.w3.org/2000/svg">
<rect opacity="0.1" width="41" height="41" rx="10.25" fill="url(#paint0_linear_2005_992)"/>
<path opacity="0.4" fill-rule="evenodd" clip-rule="evenodd" d="M17.2403 13.113H23.7989V11.5859H17.2403V13.113ZM15.7483 11.6486V11.6563C15.2364 11.7028 14.7299 11.8045 14.2371 11.9575V11.9518C14.2225 11.9579 14.2087 11.9627 14.1955 11.9672C14.1781 11.9732 14.1617 11.9788 14.1455 11.9869C14.1062 11.9964 14.0677 12.0107 14.0311 12.0287C13.923 12.0639 13.8149 12.1057 13.7133 12.1485C13.6862 12.1589 13.6592 12.171 13.6322 12.1832L13.6322 12.1832C13.6052 12.1953 13.5782 12.2074 13.5511 12.2178C13.5141 12.2354 13.4754 12.2547 13.4367 12.2739L13.4367 12.2739C13.398 12.2932 13.3593 12.3124 13.3222 12.33L13.139 12.4355C13.1051 12.4527 13.0738 12.473 13.0418 12.4937C13.0227 12.506 13.0035 12.5184 12.9833 12.5305C12.7076 12.7082 12.4521 12.9163 12.2213 13.1529L12.2076 13.1672C12.1772 13.2025 12.1471 13.2368 12.1173 13.2706L12.1173 13.2706C12.067 13.3277 12.0179 13.3835 11.9713 13.4408L11.9575 13.4541C11.2083 14.488 10.8328 15.7623 10.8979 17.0537V17.4632H12.377V17.0499C12.377 15.2501 12.9503 14.1298 14.2261 13.5558C14.7134 13.3496 15.2281 13.2223 15.752 13.1757H15.7657V11.6553L15.7483 11.6486ZM29.0395 13.4351L29.0459 13.4484C29.7942 14.4833 30.1679 15.7585 30.1019 17.0499V17.4632H28.6237V17.0394C28.6548 16.2773 28.5019 15.519 28.1777 14.8339C27.8663 14.2476 27.368 13.7924 26.7663 13.5454C26.2873 13.3391 25.7799 13.2109 25.2624 13.1653V11.6524C25.7744 11.7 26.2809 11.8007 26.7745 11.9537V11.9461C26.8023 11.9587 26.8234 11.9661 26.8598 11.979L26.8661 11.9812C26.883 11.9872 26.8987 11.9932 26.9143 11.999C26.9359 12.0072 26.9572 12.0153 26.9806 12.023C27.0819 12.0563 27.1766 12.0954 27.274 12.1357L27.2911 12.1428C27.3361 12.1586 27.3784 12.1782 27.4166 12.1958C27.429 12.2015 27.4409 12.207 27.4523 12.2121C27.5329 12.2473 27.6153 12.2891 27.6813 12.3243C27.7252 12.3471 27.7681 12.3715 27.8082 12.3944C27.83 12.4068 27.8509 12.4187 27.8709 12.4298C27.9037 12.4479 27.9322 12.4673 27.9596 12.4859C27.9797 12.4995 27.9991 12.5127 28.0192 12.5248C28.2958 12.7034 28.5541 12.9125 28.7876 13.1472L28.7959 13.1614C28.882 13.2479 28.9635 13.3391 29.0395 13.4351Z" fill="#5E6FFF"/>
<path d="M25.3046 10.5883V13.9533C25.3046 14.3772 24.9606 14.7206 24.5359 14.7206C24.1111 14.7206 23.7671 14.3772 23.7671 13.9533V10.596C23.7633 10.172 24.1054 9.82577 24.5301 9.82289C24.9548 9.82002 25.3017 10.1605 25.3046 10.5845V10.5883Z" fill="#5E6FFF"/>
<path d="M17.2328 10.6005V13.9571C17.2328 14.383 16.8884 14.7282 16.4636 14.7282C16.0388 14.7282 15.6953 14.383 15.6953 13.9571V10.6005C15.6953 10.1747 16.0388 9.83044 16.4636 9.83044C16.8884 9.83044 17.2328 10.1747 17.2328 10.6005Z" fill="#5E6FFF"/>
<path fill-rule="evenodd" clip-rule="evenodd" d="M10.8906 25.7425V17.4633H30.1094V25.7425C30.1094 29.3529 28.0931 31.177 24.0972 31.177H16.8936C12.9069 31.177 10.8906 29.3529 10.8906 25.7425ZM15.2257 22.066C15.2257 22.5669 15.6198 22.9733 16.1055 22.9733C16.6004 22.9733 16.9945 22.5575 16.9853 22.0566C16.9853 21.5556 16.5912 21.1492 16.1147 21.1492H16.1055C15.6198 21.1492 15.2257 21.5651 15.2257 22.066ZM19.6156 22.066C19.6156 22.5669 20.0189 22.9733 20.5046 22.9733C20.9903 22.9733 21.3844 22.5669 21.3844 22.0566C21.3844 21.5651 20.9903 21.1587 20.5046 21.1492H20.4954C20.0097 21.1587 19.6156 21.5651 19.6156 22.066ZM24.8946 22.9733C24.4088 22.9733 24.0147 22.5669 24.0147 22.066C24.0147 21.5651 24.3997 21.1587 24.8946 21.1587C25.3803 21.1587 25.7744 21.5651 25.7744 22.066C25.7744 22.5669 25.3803 22.9733 24.8946 22.9733ZM24.8946 26.8483C24.4088 26.8483 24.0148 26.4419 24.0056 25.941C24.0056 25.4401 24.3997 25.0337 24.8854 25.0337H24.8946C25.3803 25.0337 25.7744 25.4401 25.7744 25.941C25.7744 26.4419 25.3803 26.8483 24.8946 26.8483ZM20.5046 26.8483C20.0189 26.8483 19.6156 26.4419 19.6156 25.941C19.6156 25.4401 20.0097 25.0337 20.4954 25.0242H20.5046C20.9903 25.0337 21.3753 25.4401 21.3844 25.9316C21.3844 26.4419 20.9903 26.8483 20.5046 26.8483ZM16.1054 26.8483C15.6197 26.8483 15.2256 26.4419 15.2256 25.941C15.2164 25.4401 15.6105 25.0242 16.1054 25.0242C16.5912 25.0242 16.9853 25.4306 16.9853 25.9316C16.9853 26.4325 16.5912 26.8483 16.1054 26.8483Z" fill="#5E6FFF"/>
<defs>
<linearGradient id="paint0_linear_2005_992" x1="47.4063" y1="2.96524e-06" x2="1.39611e-07" y2="34.5937" gradientUnits="userSpaceOnUse">
<stop stop-color="#5669FF"/>
<stop offset="1" stop-color="#6D7DFF"/>
</linearGradient>
</defs>
</svg>
