<svg width="41" height="41" viewBox="0 0 41 41" fill="none" xmlns="http://www.w3.org/2000/svg">
<rect opacity="0.1" width="41" height="41" rx="10.25" fill="url(#paint0_linear_2005_998)"/>
<path d="M24.5037 20.4996C23.4747 20.4996 22.4797 20.0402 21.7009 19.2064C20.9437 18.3931 20.4813 17.3085 20.3997 16.1534C20.3126 14.9212 20.6885 13.7881 21.4577 12.9623C22.227 12.1365 23.3025 11.691 24.5037 11.691C25.6963 11.691 26.7749 12.1445 27.5416 12.9683C28.3159 13.8001 28.6928 14.9312 28.6057 16.1529C28.5221 17.3095 28.0601 18.3936 27.3044 19.2059C26.5277 20.0402 25.5332 20.4996 24.5037 20.4996ZM31.1016 29.3082H17.9062C17.6941 29.3094 17.4845 29.2618 17.2936 29.1692C17.1027 29.0766 16.9356 28.9415 16.8052 28.7742C16.6668 28.5928 16.5712 28.3825 16.5256 28.159C16.48 27.9355 16.4856 27.7045 16.5419 27.4834C16.9633 25.7913 18.0073 24.3879 19.5609 23.4255C20.9397 22.5717 22.6949 22.1012 24.5037 22.1012C26.348 22.1012 28.0571 22.5516 29.444 23.405C31.001 24.3624 32.0465 25.7738 32.4659 27.4865C32.5216 27.7077 32.5265 27.9386 32.4804 28.162C32.4343 28.3854 32.3383 28.5956 32.1997 28.7767C32.0694 28.9432 31.9026 29.0777 31.7123 29.1698C31.522 29.262 31.3131 29.3093 31.1016 29.3082Z" fill="#FF6258"/>
<path opacity="0.4" d="M15.0451 20.6998C13.2839 20.6998 11.7354 19.0622 11.5917 17.0498C11.5207 16.0188 11.842 15.0653 12.4926 14.3661C13.1362 13.674 14.0441 13.2926 15.0451 13.2926C16.0461 13.2926 16.947 13.676 17.5941 14.3722C18.2497 15.0768 18.57 16.0283 18.495 17.0508C18.3513 19.0627 16.8033 20.6998 15.0451 20.6998ZM18.3313 22.2739C17.451 21.8434 16.3083 21.6282 15.0456 21.6282C13.5712 21.6282 12.1393 22.0126 11.0132 22.7103C9.73643 23.5026 8.87759 24.6562 8.53075 26.0491C8.48 26.2494 8.4752 26.4586 8.51671 26.6611C8.55823 26.8635 8.64498 27.054 8.77049 27.2182C8.88958 27.3711 9.04214 27.4946 9.21646 27.5793C9.39077 27.664 9.58218 27.7075 9.77597 27.7067H15.3314C15.4252 27.7067 15.5159 27.6737 15.5879 27.6136C15.6599 27.5536 15.7085 27.4701 15.7253 27.3778C15.7308 27.3463 15.7378 27.3148 15.7458 27.2838C16.1702 25.5791 17.1647 24.1387 18.6341 23.0887C18.6882 23.0497 18.7316 22.9979 18.7606 22.9379C18.7895 22.8779 18.8031 22.8116 18.7999 22.745C18.7968 22.6785 18.7771 22.6138 18.7427 22.5568C18.7082 22.4997 18.66 22.4522 18.6026 22.4185C18.524 22.3725 18.4339 22.3239 18.3313 22.2739Z" fill="#FF6258"/>
<defs>
<linearGradient id="paint0_linear_2005_998" x1="41" y1="1.2219e-06" x2="-1.2219e-06" y2="41" gradientUnits="userSpaceOnUse">
<stop stop-color="#FF6056"/>
<stop offset="1" stop-color="#FF655B"/>
</linearGradient>
</defs>
</svg>
