<svg width="30" height="30" viewBox="0 0 30 30" fill="none" xmlns="http://www.w3.org/2000/svg">
<rect width="30" height="30" rx="8" fill="#29D697"/>
<g clip-path="url(#clip0_704_6617)">
<path d="M21.6102 20.7534L15.7284 14.8716L8.85657 7.99976H8.31953L8.20988 8.2784C7.92045 9.01387 7.79679 9.76609 7.85231 10.4537C7.91559 11.2374 8.21333 11.916 8.7134 12.416L14.078 17.7806L14.7855 17.073L19.7451 22.6187C20.2384 23.1121 21.0876 23.1413 21.6102 22.6187C22.1245 22.1044 22.1245 21.2677 21.6102 20.7534Z" fill="white"/>
<path d="M11.5918 16.5388L7.3903 20.7403C6.87608 21.2545 6.87608 22.0913 7.3903 22.6055C7.8788 23.094 8.72387 23.1371 9.25549 22.6055L13.457 18.404L11.5918 16.5388Z" fill="white"/>
<path d="M21.3631 10.497L18.9798 12.8803L18.358 12.2585L20.7414 9.8752L20.1196 9.25346L17.7363 11.6368L17.1146 11.015L19.4979 8.63172L18.8762 8.01001L15.7675 11.1187C15.3872 11.499 15.1601 12.004 15.128 12.5406C15.1199 12.6766 15.0891 12.8103 15.038 12.9375L17.0574 14.9569C17.1846 14.9058 17.3183 14.875 17.4543 14.8669C17.9909 14.8348 18.4959 14.6077 18.8762 14.2274L21.9849 11.1187L21.3631 10.497Z" fill="white"/>
</g>
<defs>
<clipPath id="clip0_704_6617">
<rect width="15" height="15" fill="white" transform="translate(7 8)"/>
</clipPath>
</defs>
</svg>
